<svg xmlns="http://www.w3.org/2000/svg" viewBox="0 0 42 42"><defs><style>.cls-1{fill:#fff;}</style></defs><title>ic-btn-u2</title><g id="圖層_2" data-name="圖層 2"><g id="圖層_1-2" data-name="圖層 1"><path class="cls-1" d="M18.66,25.7l7-4.72-7-4.71Z"/><path class="cls-1" d="M21,0A21,21,0,1,0,42,21,21,21,0,0,0,21,0ZM33.34,21.68a1.87,1.87,0,0,0,0,.91V23.7c-.07,0-.05.07-.05.12,0,.8-.07,1.6-.11,2.4a4.22,4.22,0,0,1-.52,2,3.35,3.35,0,0,1-2.74,1.87c-2.4.16-4.81.2-7.22.21-2.88,0-5.75,0-8.62-.11-.72,0-1.44,0-2.14-.11A3.7,3.7,0,0,1,8.87,26.7c-.14-1.38-.18-2.77-.2-4.16,0-2.28,0-4.56.15-6.83a4.2,4.2,0,0,1,.75-2.25,3.28,3.28,0,0,1,2.5-1.52c2-.14,4.06-.17,6.09-.18,3.35,0,6.7,0,10.05.09a15.55,15.55,0,0,1,1.94.12,3.72,3.72,0,0,1,3,3.35c.07.92.12,1.84.14,2.77,0,.05,0,.13.05.16Z"/></g></g></svg>