<svg xmlns="http://www.w3.org/2000/svg" viewBox="0 0 42 42"><defs><style>.cls-1{fill:#fff;fill-rule:evenodd;}</style></defs><title>ic-btn-ig</title><g id="圖層_2" data-name="圖層 2"><g id="圖層_1-2" data-name="圖層 1"><path class="cls-1" d="M21,42A21,21,0,1,1,42,21,21,21,0,0,1,21,42m8.54-10.32a3.43,3.43,0,0,0,.34-.06,2.3,2.3,0,0,0,1.75-1.79c0-.09,0-.19.05-.28V12.46c0-.1,0-.19-.05-.28a2.31,2.31,0,0,0-1.94-1.84l-.12,0H12.43l-.31.06a2.31,2.31,0,0,0-1.78,1.93.59.59,0,0,1,0,.13V29.57l.06.32a2.31,2.31,0,0,0,1.94,1.77l.14,0ZM12.63,19v9.54a.87.87,0,0,0,.85.85h15a.87.87,0,0,0,.85-.85V19h-2a6.69,6.69,0,0,1,.26,2.81,6.6,6.6,0,0,1-2.87,4.71,6.64,6.64,0,0,1-10-7.52ZM21,16.67a4.33,4.33,0,1,0,4.32,4.43A4.34,4.34,0,0,0,21,16.67m6.49-.87h1.05a.86.86,0,0,0,.83-.85v-2a.86.86,0,0,0-.87-.86h-2a.86.86,0,0,0-.86.87c0,.66,0,1.33,0,2a1,1,0,0,0,.05.3.87.87,0,0,0,.85.58h1"/></g></g></svg>