<?xml version="1.0" encoding="utf-8"?>
<!-- Generator: Adobe Illustrator 21.0.0, SVG Export Plug-In . SVG Version: 6.00 Build 0)  -->
<svg version="1.1" xmlns="http://www.w3.org/2000/svg" xmlns:xlink="http://www.w3.org/1999/xlink" x="0px" y="0px"
	 viewBox="0 0 42 42" style="enable-background:new 0 0 42 42;" xml:space="preserve">
<style type="text/css">
	.st0{display:none;}
	.st1{display:inline;fill:#382F2F;}
	.st2{display:inline;fill:#FFFFFF;}
	.st3{fill:#FFFFFF;}
</style>
<g id="圖層_2_1_" class="st0">
	<rect x="-6.9" y="-3.4" class="st1" width="61.8" height="55.9"/>
</g>
<g id="圖層_1" class="st0">
	<path class="st2" d="M29,10.4h-2.8c-2.2,0-2.5,0.7-2.5,2.2v3.2H29L28.4,21h-4.7v16h-6.9V21H13v-5.3h3.7v-3.6c0-4.5,1.9-7.1,7.6-7.1
		H29V10.4z"/>
</g>
<g id="圖層_3">
	<g>
		<path class="st3" d="M21,13c-4.7,0-8.6,3.1-8.6,7c0,3.4,3.1,6.3,7.2,6.9c0.3,0.1,0.7,0.2,0.8,0.4c0.1,0.2,0.1,0.5,0,0.8
			c0,0-0.1,0.6-0.1,0.7c0,0.2-0.2,0.9,0.7,0.5c0.9-0.4,4.9-2.9,6.7-5c1.2-1.4,1.8-2.8,1.8-4.3C29.6,16.1,25.7,13,21,13z M17.6,22.2
			h-1.7c-0.2,0-0.5-0.2-0.5-0.5v-3.4c0-0.2,0.2-0.5,0.5-0.5c0.2,0,0.5,0.2,0.5,0.5v3h1.3c0.2,0,0.5,0.2,0.5,0.5
			C18.1,22,17.9,22.2,17.6,22.2z M19.4,21.8c0,0.2-0.2,0.5-0.5,0.5c-0.3,0-0.5-0.2-0.5-0.5v-3.4c0-0.2,0.2-0.5,0.5-0.5
			c0.3,0,0.5,0.2,0.5,0.5V21.8z M23.5,21.8c0,0.2-0.1,0.4-0.3,0.4c0,0-0.1,0-0.2,0c-0.1,0-0.3-0.1-0.3-0.2L21,19.7v2.1
			c0,0.2-0.2,0.5-0.5,0.5c-0.2,0-0.5-0.2-0.5-0.5v-3.4c0-0.2,0.1-0.4,0.3-0.4c0,0,0.1,0,0.2,0c0.1,0,0.3,0.1,0.3,0.2l1.7,2.4v-2.1
			c0-0.2,0.2-0.5,0.5-0.5c0.3,0,0.5,0.2,0.5,0.5V21.8z M26.3,19.6c0.2,0,0.5,0.2,0.5,0.5c0,0.2-0.2,0.5-0.5,0.5H25v0.8h1.3
			c0.2,0,0.5,0.2,0.5,0.5c0,0.2-0.2,0.5-0.5,0.5h-1.7c-0.2,0-0.5-0.2-0.5-0.5v-1.7v-1.7c0-0.2,0.2-0.5,0.5-0.5h1.7
			c0.2,0,0.5,0.2,0.5,0.5c0,0.2-0.2,0.5-0.5,0.5H25v0.8H26.3z"/>
		<path class="st3" d="M21,0C9.4,0,0,9.4,0,21s9.4,21,21,21s21-9.4,21-21S32.6,0,21,0z M32.8,28.5c0,2.4-1.9,4.3-4.3,4.3h-15
			c-2.4,0-4.3-1.9-4.3-4.3v-15c0-2.4,1.9-4.3,4.3-4.3h15c2.4,0,4.3,1.9,4.3,4.3V28.5z"/>
	</g>
</g>
</svg>
