<svg xmlns="http://www.w3.org/2000/svg" viewBox="0 0 275 36.84"><defs><style>.cls-1,.cls-3{fill:#040000;}.cls-2{fill:#221714;}.cls-2,.cls-3{fill-rule:evenodd;}.cls-4{fill:#10cfc9;}</style></defs><title>ic-logo</title><g id="圖層_2" data-name="圖層 2"><g id="圖層_1-2" data-name="圖層 1"><path class="cls-1" d="M150.59,5,143,15.78h-8.81c-4.87,0-7.15,4.86-7.15,4.86h12.54l-7.86,11.17h8.88L159.47,5Z"/><polygon class="cls-1" points="125.98 5.02 106.91 31.81 115.78 31.81 134.86 5.02 125.98 5.02"/><path class="cls-1" d="M217.65,31.81h-8.88c4.12-7.71,1.67-17.5-1.54-20.18L193,31.81l-8.87,0L203,5h8.88c1.52,0,6.77,6.44,6.68,12.87L227.62,5h8.87Z"/><path class="cls-2" d="M0,2.15H27.86L25.43,5.59H15.85l8.2,8-5,7.1ZM19.06,20.64,0,2.15"/><polygon class="cls-3" points="38.6 0 47.47 0 21.56 36.84 16.63 30.31 4.9 30.31 1.16 25.45 15.86 25.45 18.34 28.8 38.6 0"/><path class="cls-1" d="M49,5h8.87l-13,18.54c-.69,1-.68,1.76-.41,2.2a2.66,2.66,0,0,0,2.43,1.14L58.15,27,73.58,5h8.87L63.61,31.81l-23.47,0c-5.35,0-7.41-3.68-4.65-7.61L49,5"/><path class="cls-1" d="M237.34,23.63c-.7,1-.69,1.76-.42,2.19A2.68,2.68,0,0,0,239.36,27h11.31l4.44-6.32H243.68s3-4.68,7.77-4.84l16,0-11.28,16H232.63c-5.29,0-7.34-3.65-4.65-7.55h0l0-.05L241.51,5H275l-5.11,7.27H261l1.7-2.41H247Z"/><path class="cls-1" d="M188,5H164.49L145.65,31.81h8.87l7.91-11.17h15.65l-7.82,11.17h8.88l13.52-19.24C195.34,8.67,193.29,5,188,5m-4.71,8.2c-1.09,1.54-4.35,6.2-4.35,6.2.3-1.37-1.48-3.64-3.79-3.64H165.8L170,9.88h11.33A2.66,2.66,0,0,1,183.72,11c.27.43.28,1.2-.42,2.19"/><path class="cls-1" d="M103.5,15.78H88.78l4.15-5.9h12.34L101.35,5H87.47l-11,15.62s15.19,0,20.25,0a2.65,2.65,0,0,1,2.44,1.14c.26.43.27,1.2-.42,2.19-.53.74-2.09,3-2.09,3H72.05l-3.42,4.85h33.49l6-8.48c2.69-3.89.64-7.52-4.65-7.55"/><polygon class="cls-4" points="121 5.02 113.39 15.78 104.83 5.02 121 5.02"/></g></g></svg>